# xmcd
#
# Track frame offsets:
#	150
#	19783
#	40368
#	57371
#	76843
#	93480
#	118144
#	140948
#	158855
#	177862
#	199001
#	220929
#	238836
#
# Disc length: 3401 seconds
#
# Revision: 0
# Processed by: cddbd v1.5.2PL0 Copyright (c) Steve Scherf et al.
# Submitted via: audiograbber 1.82.01
#
DISCID=ba0d470d
DTITLE=Firewater Creek - Live at the Cote Ranch
DYEAR=2006
DGENRE=Country
TTITLE0=Little Bit More
TTITLE1=Lodi
TTITLE2=Aint Nothin Bout You
TTITLE3=Doin Somethin Right
TTITLE4=Even Cowgirls Get 
TTITLE5=Cowbot Song
TTITLE6=Come A Little Closer
TTITLE7=Walk Softly
TTITLE8=Neon Moon
TTITLE9=Have You Ever Seen
TTITLE10=Peacfull Easy
TTITLE11=Walk Softly
TTITLE12=My Maria
EXTD=
EXTT0=
EXTT1=
EXTT2=
EXTT3=
EXTT4=
EXTT5=
EXTT6=
EXTT7=
EXTT8=
EXTT9=
EXTT10=
EXTT11=
EXTT12=
PLAYORDER=
